<svg width="62" height="15" viewBox="0 0 62 15" fill="none" xmlns="http://www.w3.org/2000/svg">
<path d="M15.5625 6.625C15.6198 6.69271 15.6484 6.76562 15.6484 6.84375C15.6484 7 15.5833 7.07812 15.4531 7.07812C15.4167 7.07812 15.3828 7.0651 15.3516 7.03906C15.2422 6.94531 15.1042 6.84375 14.9375 6.73438C14.0365 10.0521 12.9479 12.4375 11.6719 13.8906C11.5365 14.0417 11.3542 14.1172 11.125 14.1172C10.9062 14.1172 10.6771 14.0573 10.4375 13.9375C9.70833 13.724 9.20312 13.5026 8.92188 13.2734C8.51042 12.9453 8.28646 12.4453 8.25 11.7734C8.23438 11.5807 8.22656 11.3724 8.22656 11.1484C8.22656 9.69531 8.43229 8.1875 8.84375 6.625C8.27083 7.23958 7.63542 8.03906 6.9375 9.02344C6.11979 10.1745 5.55469 11.1198 5.24219 11.8594C4.90885 12.6354 4.67708 13.1198 4.54688 13.3125C4.44271 13.4635 4.26302 13.6016 4.00781 13.7266C3.59115 13.9349 3.30469 14.0391 3.14844 14.0391C3.03906 14.0391 2.98438 13.9922 2.98438 13.8984C2.98438 13.8255 3.01562 13.7214 3.07812 13.5859C3.61458 12.4505 4.15365 10.8958 4.69531 8.92188C5.23698 6.94271 5.50781 5.52604 5.50781 4.67188C5.50781 4.53646 5.4974 4.42448 5.47656 4.33594C4.9349 4.46615 4.28646 4.70573 3.53125 5.05469C2.80729 5.38802 2.19792 5.71875 1.70312 6.04688C1.4375 6.22917 1.30469 6.47135 1.30469 6.77344C1.30469 6.96615 1.35677 7.18229 1.46094 7.42188C1.48698 7.47396 1.5 7.51823 1.5 7.55469C1.5 7.64323 1.45573 7.6875 1.36719 7.6875C1.27344 7.6875 1.18229 7.63281 1.09375 7.52344C0.458333 6.73698 0.151042 6.22917 0.171875 6C0.1875 5.72917 0.515625 5.42448 1.15625 5.08594C1.61979 4.84115 2.29688 4.57292 3.1875 4.28125C4.10417 3.98438 4.6875 3.77344 4.9375 3.64844C4.96354 3.57031 4.98958 3.49219 5.01562 3.41406C5.0625 3.29427 5.14583 3.23438 5.26562 3.23438C5.45312 3.23438 5.7474 3.38281 6.14844 3.67969C6.47656 3.91927 6.64062 4.22135 6.64062 4.58594C6.64062 4.67448 6.6276 4.85156 6.60156 5.11719C6.5599 5.51302 6.38281 6.3125 6.07031 7.51562C5.77344 8.64583 5.51302 9.54427 5.28906 10.2109C5.74219 9.54948 6.47656 8.55469 7.49219 7.22656C8.47135 5.9401 9.04427 5.21615 9.21094 5.05469C9.3776 4.4401 9.48698 4.07292 9.53906 3.95312C9.65885 3.68229 9.82031 3.54688 10.0234 3.54688C10.0911 3.54688 10.1667 3.5599 10.25 3.58594C10.8229 3.76302 11.1094 3.9349 11.1094 4.10156C11.1094 4.19531 11.0469 4.3099 10.9219 4.44531L10.3828 5.01562L10.375 5.02344C9.66146 7.35156 9.30469 9.29688 9.30469 10.8594C9.30469 11.0781 9.3099 11.2943 9.32031 11.5078C9.35156 12.0495 9.48177 12.4948 9.71094 12.8438C9.9401 13.1927 10.2109 13.3646 10.5234 13.3594C10.888 13.3542 11.2188 13.1458 11.5156 12.7344C12.0312 12.0208 12.5651 11.0286 13.1172 9.75781C13.7474 8.3151 14.151 7.04688 14.3281 5.95312C14.0833 5.67188 13.9609 5.27865 13.9609 4.77344C13.9609 4.35156 14.0469 3.82812 14.2188 3.20312C14.3073 2.86458 14.4453 2.69531 14.6328 2.69531C14.8047 2.69531 15.013 2.84115 15.2578 3.13281C15.4401 3.35677 15.5312 3.61458 15.5312 3.90625C15.5312 4.08854 15.3802 4.82292 15.0781 6.10938C15.151 6.18229 15.3125 6.35417 15.5625 6.625ZM21.2812 1.875C21.349 1.92708 21.3828 1.98438 21.3828 2.04688C21.3828 2.14062 21.3229 2.1875 21.2031 2.1875C21.151 2.1875 21.0964 2.17188 21.0391 2.14062C20.7995 2.02083 20.6198 1.96094 20.5 1.96094C20.1823 1.96094 19.8281 2.27865 19.4375 2.91406C18.0625 5.15365 17.0443 8.08594 16.3828 11.7109C17.2318 10.0807 18.2031 8.77865 19.2969 7.80469C19.5312 7.59635 19.7031 7.49219 19.8125 7.49219C19.8438 7.49219 19.974 7.5651 20.2031 7.71094C20.4792 7.82552 20.6354 7.89844 20.6719 7.92969C20.8073 8.04948 20.875 8.25781 20.875 8.55469C20.875 8.63802 20.8698 8.72917 20.8594 8.82812C20.7708 9.75521 20.5052 10.8776 20.0625 12.1953C20.224 11.9766 20.4792 11.6562 20.8281 11.2344C20.9115 11.1458 20.9818 11.1016 21.0391 11.1016C21.0964 11.1016 21.125 11.1354 21.125 11.2031C21.125 11.2812 21.0911 11.3698 21.0234 11.4688C20.7214 11.9062 20.3203 12.5469 19.8203 13.3906C19.7786 13.474 19.6771 13.6927 19.5156 14.0469C19.4479 14.2135 19.3542 14.2969 19.2344 14.2969C19.099 14.2969 18.9036 14.2057 18.6484 14.0234C18.5443 13.9505 18.526 13.8359 18.5938 13.6797C19.4896 11.4297 19.9635 9.75 20.0156 8.64062C20.0312 8.32292 19.987 8.16406 19.8828 8.16406C19.8151 8.16406 19.6719 8.2526 19.4531 8.42969C19.0521 8.7526 18.5599 9.32552 17.9766 10.1484C17.2057 11.2318 16.6094 12.3385 16.1875 13.4688C16.0729 13.7917 15.9661 13.9531 15.8672 13.9531C15.7786 13.9531 15.6042 13.8464 15.3438 13.6328C15.2135 13.5234 15.1693 13.3411 15.2109 13.0859C15.8151 9.77865 16.6016 6.95312 17.5703 4.60938C18.2891 2.86458 18.9375 1.72396 19.5156 1.1875C19.6615 1.05208 19.8047 0.984375 19.9453 0.984375C20.0911 0.984375 20.276 1.06771 20.5 1.23438C20.7604 1.44792 21.0208 1.66146 21.2812 1.875ZM26.75 9.05469C26.7396 9.51823 26.6276 10.1328 26.4141 10.8984C26.0755 12.1068 25.5964 13.0443 24.9766 13.7109C24.6484 14.0651 24.2839 14.2422 23.8828 14.2422C23.7266 14.2422 23.526 14.2083 23.2812 14.1406C22.7917 14.1094 22.3932 13.9557 22.0859 13.6797C21.7526 13.3776 21.5964 12.9896 21.6172 12.5156C21.638 11.9635 21.8281 11.1927 22.1875 10.2031C22.5833 9.125 22.9948 8.34896 23.4219 7.875C23.625 7.64583 23.7917 7.53125 23.9219 7.53125C24.099 7.53125 24.3854 7.71354 24.7812 8.07812C24.8906 8.02604 25.1146 7.92969 25.4531 7.78906C25.625 7.73177 25.7552 7.70312 25.8438 7.70312C26.0469 7.70312 26.2734 7.89323 26.5234 8.27344C26.6849 8.50781 26.7604 8.76823 26.75 9.05469ZM25.8516 9.28125C25.888 8.93229 25.9062 8.71094 25.9062 8.61719C25.9062 8.39844 25.8385 8.28906 25.7031 8.28906C25.651 8.28906 25.5833 8.29948 25.5 8.32031L24.2891 8.8125C24.1484 8.86979 24.0677 8.89844 24.0469 8.89844C24.0052 8.89844 23.9635 8.84896 23.9219 8.75C23.6198 9.11979 23.3385 9.65365 23.0781 10.3516C22.875 10.8984 22.7344 11.388 22.6562 11.8203C22.599 12.112 22.5703 12.3776 22.5703 12.6172C22.5703 13.4193 22.8177 13.8099 23.3125 13.7891C23.5104 13.7839 23.724 13.7057 23.9531 13.5547C24.3906 13.2578 24.7995 12.6641 25.1797 11.7734C25.5443 10.9349 25.7682 10.1042 25.8516 9.28125ZM38.0547 9.96875C38.1276 10.0365 38.1641 10.1094 38.1641 10.1875C38.1641 10.3438 38.0938 10.4219 37.9531 10.4219C37.9219 10.4219 37.8177 10.3646 37.6406 10.25C37.5573 10.1927 37.487 10.151 37.4297 10.125C36.7734 11.9323 36.2135 13.1589 35.75 13.8047C35.5729 14.0547 35.3906 14.1797 35.2031 14.1797C35.1198 14.1797 34.9375 14.1354 34.6562 14.0469C34.4167 13.9688 34.2682 13.901 34.2109 13.8438C34.1536 13.7865 34.0938 13.6406 34.0312 13.4062C33.7969 12.4688 33.6797 11.7005 33.6797 11.1016C33.4245 11.4661 32.9974 12.0052 32.3984 12.7188C31.8307 13.401 31.4844 13.8333 31.3594 14.0156C31.2969 14.1146 31.2083 14.1641 31.0938 14.1641C30.9479 14.1641 30.7188 14.0443 30.4062 13.8047C30.3281 13.7474 30.2891 13.6927 30.2891 13.6406C30.2891 13.5625 30.3958 13.4427 30.6094 13.2812C30.7865 12.7656 30.9401 12.1042 31.0703 11.2969C31.1953 10.5052 31.2578 9.82552 31.2578 9.25781C31.2578 8.97135 31.2396 8.75 31.2031 8.59375C31.0938 8.70312 30.8646 8.98438 30.5156 9.4375C30.4583 9.51562 30.3906 9.55469 30.3125 9.55469C30.1979 9.55469 30.1406 9.5 30.1406 9.39062C30.1406 9.34375 30.1589 9.29688 30.1953 9.25C30.3568 9.04167 30.5859 8.70573 30.8828 8.24219C30.9766 8.0651 31.099 7.94531 31.25 7.88281C31.2865 7.86719 31.4844 7.8151 31.8438 7.72656C31.9375 7.70573 32.0104 7.69531 32.0625 7.69531C32.1562 7.69531 32.2135 7.74479 32.2344 7.84375C32.25 7.91667 32.2578 8.09635 32.2578 8.38281C32.2578 10.0182 32.0781 11.4427 31.7188 12.6562C32.6719 11.7188 33.3203 10.8073 33.6641 9.92188C33.7057 9.42708 33.7474 9.07292 33.7891 8.85938C33.8568 8.5 33.9661 8.19271 34.1172 7.9375C34.2422 7.71354 34.3802 7.60156 34.5312 7.60156C34.6562 7.60156 34.849 7.69271 35.1094 7.875C35.2552 7.97396 35.3281 8.0651 35.3281 8.14844C35.3281 8.19531 35.2865 8.33333 35.2031 8.5625C35.0469 9 34.8542 9.3776 34.625 9.69531C34.5781 10.0391 34.5547 10.3958 34.5547 10.7656C34.5547 11.5312 34.6589 12.3255 34.8672 13.1484C34.9245 13.3776 34.9974 13.4922 35.0859 13.4922C35.1849 13.4922 35.3047 13.3568 35.4453 13.0859C36.2214 11.5859 36.7005 10.4557 36.8828 9.69531C36.8151 9.60677 36.7448 9.51302 36.6719 9.41406C36.599 9.3099 36.5625 9.20052 36.5625 9.08594C36.5625 8.98177 36.5885 8.85938 36.6406 8.71875C36.6927 8.47917 36.7448 8.24219 36.7969 8.00781C36.8802 7.70052 37.0182 7.54688 37.2109 7.54688C37.3672 7.54688 37.5781 7.6224 37.8438 7.77344C38 7.86719 38.0781 8.01823 38.0781 8.22656C38.0781 8.39844 38.0182 8.63021 37.8984 8.92188C37.8099 9.13021 37.7214 9.34115 37.6328 9.55469C37.6797 9.61198 37.8203 9.75 38.0547 9.96875ZM42.5234 11.7734C41.2578 13.3932 40.3672 14.2031 39.8516 14.2031C39.6068 14.2031 39.2969 14.0339 38.9219 13.6953C38.5312 13.513 38.3359 13.2682 38.3359 12.9609C38.3359 12.9036 38.3411 12.8438 38.3516 12.7812C38.4453 12.0677 38.6354 11.2786 38.9219 10.4141C38.7292 10.3151 38.6328 10.2214 38.6328 10.1328C38.6328 10.0599 38.6875 10.0234 38.7969 10.0234C38.8802 10.0234 38.9661 10.0469 39.0547 10.0938C39.5182 9.05208 39.9349 8.3125 40.3047 7.875C40.5443 7.58333 40.7604 7.4375 40.9531 7.4375C41.0417 7.4375 41.2604 7.51302 41.6094 7.66406C41.5833 7.50781 41.6276 7.41667 41.7422 7.39062C41.7474 7.39062 41.8698 7.39062 42.1094 7.39062C42.3333 7.39062 42.4453 7.42969 42.4453 7.50781C42.4453 7.52344 42.4375 7.56771 42.4219 7.64062C42.4062 7.71354 42.3984 7.78125 42.3984 7.84375C42.3984 8.03125 42.401 8.26302 42.4062 8.53906C42.4115 8.8151 42.4141 9 42.4141 9.09375C42.4141 9.73958 42.237 10.1901 41.8828 10.4453C41.5599 10.6797 41.1953 10.7969 40.7891 10.7969C40.5755 10.7969 40.2214 10.7396 39.7266 10.625C39.638 10.7865 39.5391 11.1016 39.4297 11.5703C39.2839 12.1641 39.2161 12.6901 39.2266 13.1484C39.2318 13.4193 39.3177 13.5547 39.4844 13.5547C39.5469 13.5547 39.6276 13.5391 39.7266 13.5078C40.3307 13.2943 41.1719 12.6432 42.25 11.5547C42.3177 11.487 42.3854 11.4531 42.4531 11.4531C42.5521 11.4531 42.6016 11.5 42.6016 11.5938C42.6016 11.651 42.5755 11.7109 42.5234 11.7734ZM41.6094 8.32031C41.6094 8.11719 41.5651 8.01562 41.4766 8.01562C41.4193 8.01562 41.3359 8.05729 41.2266 8.14062C40.7161 8.55208 40.2682 9.27344 39.8828 10.3047C39.987 10.3203 40.1693 10.3359 40.4297 10.3516C40.8516 10.3672 41.1667 10.2708 41.375 10.0625C41.5312 9.90625 41.6172 9.64844 41.6328 9.28906C41.6172 9.55469 41.6094 9.23177 41.6094 8.32031ZM51.4766 8.79688C50.9974 10.125 50.6667 11.2396 50.4844 12.1406C50.5625 12.0677 50.6641 11.9557 50.7891 11.8047C50.9193 11.6536 51 11.5651 51.0312 11.5391C51.1042 11.4453 51.1823 11.3984 51.2656 11.3984C51.3438 11.3984 51.3828 11.4375 51.3828 11.5156C51.3828 11.5625 51.362 11.6172 51.3203 11.6797C50.8307 12.4036 50.5052 13.1354 50.3438 13.875C50.2969 14.0833 50.2266 14.1875 50.1328 14.1875C50.0443 14.1875 49.8802 14.1042 49.6406 13.9375C49.5 13.8438 49.4193 13.7656 49.3984 13.7031C49.3724 13.6458 49.3724 13.5312 49.3984 13.3594C49.6172 12.0365 49.8906 10.9375 50.2188 10.0625C49.7656 10.7969 49.1484 11.6094 48.3672 12.5C47.6849 13.276 47.1927 13.7708 46.8906 13.9844C46.6719 14.1354 46.5052 14.2109 46.3906 14.2109C46.2969 14.2109 46.1536 14.1354 45.9609 13.9844C45.6849 13.8177 45.5469 13.5885 45.5469 13.2969C45.5469 13.2396 45.5521 13.1745 45.5625 13.1016C45.6562 12.3307 45.9948 11.4349 46.5781 10.4141C47.1615 9.38802 47.8307 8.52344 48.5859 7.82031C48.8307 7.59115 49.0495 7.47917 49.2422 7.48438C49.4297 7.49479 49.7865 7.74219 50.3125 8.22656C50.3594 8.26823 50.3828 8.3125 50.3828 8.35938C50.3828 8.44271 50.3281 8.48438 50.2188 8.48438C50.1771 8.48438 50.138 8.47656 50.1016 8.46094C49.7318 8.30469 49.4349 8.3099 49.2109 8.47656C48.7214 8.83594 48.1797 9.46875 47.5859 10.375C46.8984 11.4167 46.4844 12.3542 46.3438 13.1875C46.3385 13.224 46.3359 13.2578 46.3359 13.2891C46.3359 13.4193 46.388 13.4844 46.4922 13.4844C46.6693 13.4844 46.8802 13.362 47.125 13.1172C47.7083 12.5495 48.3333 11.8359 49 10.9766C49.6823 10.0859 50.1198 9.41406 50.3125 8.96094C50.4531 8.6276 50.5443 8.39323 50.5859 8.25781C50.6536 8.02344 50.7266 7.90625 50.8047 7.90625C50.8828 7.90625 51.0651 8.01302 51.3516 8.22656C51.4714 8.3151 51.5365 8.39583 51.5469 8.46875C51.5573 8.53125 51.5339 8.64062 51.4766 8.79688ZM57.2031 8.125C57.2031 8.80729 57.112 9.45833 56.9297 10.0781C56.8724 10.2656 56.7943 10.3594 56.6953 10.3594C56.6224 10.3594 56.4609 10.2552 56.2109 10.0469C56.0859 9.94271 56.0547 9.79427 56.1172 9.60156C56.263 9.1276 56.3359 8.7474 56.3359 8.46094C56.3359 8.36198 56.3151 8.3125 56.2734 8.3125C56.2109 8.3125 56.1094 8.40625 55.9688 8.59375C54.8854 10.0052 54.0755 11.5885 53.5391 13.3438C53.3672 13.901 53.2214 14.1797 53.1016 14.1797C53.0547 14.1797 52.849 14.0885 52.4844 13.9062C52.3073 13.8177 52.2474 13.6458 52.3047 13.3906C52.7161 11.5885 53.1589 10.0677 53.6328 8.82812C53.2474 9.23438 53.0026 9.51302 52.8984 9.66406C52.8568 9.72656 52.7995 9.75781 52.7266 9.75781C52.638 9.75781 52.5938 9.71875 52.5938 9.64062C52.5938 9.59375 52.6146 9.54167 52.6562 9.48438C52.9115 9.17708 53.2526 8.70833 53.6797 8.07812C53.8099 7.84896 53.9401 7.73438 54.0703 7.73438C54.1641 7.73438 54.3542 7.80729 54.6406 7.95312C54.8021 8.03646 54.8281 8.14844 54.7188 8.28906C54.6042 8.4401 54.388 8.97396 54.0703 9.89062C53.7682 10.7812 53.5599 11.4792 53.4453 11.9844C54.1536 10.4062 54.9583 9.01302 55.8594 7.80469C56.0312 7.57552 56.1693 7.46094 56.2734 7.46094C56.3672 7.46094 56.4948 7.52344 56.6562 7.64844C56.875 7.67448 57.013 7.70833 57.0703 7.75C57.1589 7.8125 57.2031 7.9375 57.2031 8.125ZM61.3672 11.7734C60.1016 13.3932 59.2109 14.2031 58.6953 14.2031C58.4505 14.2031 58.1406 14.0339 57.7656 13.6953C57.375 13.513 57.1797 13.2682 57.1797 12.9609C57.1797 12.9036 57.1849 12.8438 57.1953 12.7812C57.2891 12.0677 57.4792 11.2786 57.7656 10.4141C57.5729 10.3151 57.4766 10.2214 57.4766 10.1328C57.4766 10.0599 57.5312 10.0234 57.6406 10.0234C57.724 10.0234 57.8099 10.0469 57.8984 10.0938C58.362 9.05208 58.7786 8.3125 59.1484 7.875C59.388 7.58333 59.6042 7.4375 59.7969 7.4375C59.8854 7.4375 60.1042 7.51302 60.4531 7.66406C60.4271 7.50781 60.4714 7.41667 60.5859 7.39062C60.5911 7.39062 60.7135 7.39062 60.9531 7.39062C61.1771 7.39062 61.2891 7.42969 61.2891 7.50781C61.2891 7.52344 61.2812 7.56771 61.2656 7.64062C61.25 7.71354 61.2422 7.78125 61.2422 7.84375C61.2422 8.03125 61.2448 8.26302 61.25 8.53906C61.2552 8.8151 61.2578 9 61.2578 9.09375C61.2578 9.73958 61.0807 10.1901 60.7266 10.4453C60.4036 10.6797 60.0391 10.7969 59.6328 10.7969C59.4193 10.7969 59.0651 10.7396 58.5703 10.625C58.4818 10.7865 58.3828 11.1016 58.2734 11.5703C58.1276 12.1641 58.0599 12.6901 58.0703 13.1484C58.0755 13.4193 58.1615 13.5547 58.3281 13.5547C58.3906 13.5547 58.4714 13.5391 58.5703 13.5078C59.1745 13.2943 60.0156 12.6432 61.0938 11.5547C61.1615 11.487 61.2292 11.4531 61.2969 11.4531C61.3958 11.4531 61.4453 11.5 61.4453 11.5938C61.4453 11.651 61.4193 11.7109 61.3672 11.7734ZM60.4531 8.32031C60.4531 8.11719 60.4089 8.01562 60.3203 8.01562C60.263 8.01562 60.1797 8.05729 60.0703 8.14062C59.5599 8.55208 59.112 9.27344 58.7266 10.3047C58.8307 10.3203 59.013 10.3359 59.2734 10.3516C59.6953 10.3672 60.0104 10.2708 60.2188 10.0625C60.375 9.90625 60.4609 9.64844 60.4766 9.28906C60.4609 9.55469 60.4531 9.23177 60.4531 8.32031Z" fill="#F2BE1A"/>
</svg>
